<svg width="58" height="64" viewBox="0 0 58 64" fill="none" xmlns="http://www.w3.org/2000/svg">
<circle cx="28.9688" cy="28.6567" r="28.1543" fill="#FFD166"/>
<path d="M22.0331 58.2289H21.0331V59.2289V61.2319C21.0331 61.7845 20.5862 62.2349 20.03 62.2349H18.027C17.4777 62.2349 17.024 61.7813 17.024 61.2319V45.3765L21.1349 33.538C21.1349 33.5379 21.1349 33.5379 21.135 33.5378C21.4098 32.747 22.1603 32.1868 23.0346 32.1868H45.0677C45.9419 32.1868 46.6924 32.747 46.9673 33.5378C46.9673 33.5379 46.9673 33.5379 46.9673 33.538L51.0782 45.3765V61.2319C51.0782 61.7845 50.6313 62.2349 50.0752 62.2349H48.0722C47.5228 62.2349 47.0692 61.7813 47.0692 61.2319V59.2289V58.2289H46.0692H22.0331ZM19.0814 42.8886L18.6426 44.2048H20.03H48.0722H49.4596L49.0209 42.8886L46.0164 33.875L45.7884 33.1913H45.0677H23.0346H22.3138L22.0859 33.875L19.0814 42.8886ZM19.03 50.2153C19.03 52.4301 20.8198 54.2199 23.0346 54.2199C25.2493 54.2199 27.0391 52.4301 27.0391 50.2153C27.0391 48.0006 25.2493 46.2108 23.0346 46.2108C20.8198 46.2108 19.03 48.0006 19.03 50.2153ZM41.0632 50.2153C41.0632 52.4301 42.8529 54.2199 45.0677 54.2199C47.2825 54.2199 49.0722 52.4301 49.0722 50.2153C49.0722 48.0006 47.2825 46.2108 45.0677 46.2108C42.8529 46.2108 41.0632 48.0006 41.0632 50.2153Z" stroke="black" stroke-width="2"/>
<path d="M36.1317 27.0623L37.5186 17.1302L26.4235 30.3731H31.971L30.5841 40.9674L41.6793 27.0623H36.1317Z" fill="#FFD166" stroke="black" stroke-width="2" stroke-linejoin="round"/>
</svg>
