<svg width="57" height="65" viewBox="0 0 57 65" fill="none" xmlns="http://www.w3.org/2000/svg">
<circle cx="28.2617" cy="28.6816" r="28.1543" fill="#97F6D1"/>
<path d="M32.0038 15.0464H39.7472C40.2995 15.0464 40.7472 15.4941 40.7472 16.0464V23.1403C40.7472 23.6926 40.2995 24.1403 39.7472 24.1403H39.149C38.5967 24.1403 38.149 24.588 38.149 25.1403V25.7385C38.149 26.2908 38.5967 26.7385 39.149 26.7385H42.8917C43.1801 26.7385 43.4544 26.863 43.6443 27.08L47.645 31.6523C47.8045 31.8346 47.8924 32.0686 47.8924 32.3108V62.7637C47.8924 63.316 47.4447 63.7637 46.8924 63.7637H24.209C23.6567 63.7637 23.209 63.316 23.209 62.7637V32.3493C23.209 32.084 23.3143 31.8297 23.5019 31.6422L28.1126 27.0314C28.3001 26.8439 28.5545 26.7385 28.8197 26.7385H31.9524C32.5047 26.7385 32.9524 26.2908 32.9524 25.7385V25.1146C32.9524 24.5765 32.5162 24.1403 31.9781 24.1403C31.44 24.1403 31.0038 23.7041 31.0038 23.1659V16.0464C31.0038 15.4941 31.4515 15.0464 32.0038 15.0464Z" stroke="black" stroke-width="2"/>
<path d="M39.8465 47.5842C39.8465 50.1493 37.8779 52.1445 35.5509 52.1445C33.224 52.1445 31.2554 50.1493 31.2554 47.5842C31.2554 47.0286 31.4702 46.2534 31.8908 45.3034C32.302 44.3746 32.8667 43.3721 33.4713 42.389C34.0111 41.5111 34.5698 40.6692 35.065 39.9228C35.1236 39.8345 35.1813 39.7476 35.2379 39.6621C35.3445 39.5013 35.4495 39.3426 35.5509 39.188C35.6524 39.3426 35.7574 39.5013 35.864 39.6621C35.9206 39.7476 35.9783 39.8345 36.0369 39.9228C36.5321 40.6692 37.0908 41.5111 37.6306 42.389C38.2352 43.3721 38.7999 44.3746 39.2111 45.3034C39.6317 46.2534 39.8465 47.0286 39.8465 47.5842Z" stroke="black" stroke-width="2"/>
<path d="M52.1467 13.6162L45.0943 18.788C44.5494 19.1876 44.5494 20.0013 45.0943 20.4008L52.1467 25.5726C52.8073 26.057 53.7381 25.5853 53.7381 24.7662V14.4226C53.7381 13.6035 52.8073 13.1318 52.1467 13.6162Z" stroke="black" stroke-width="2"/>
</svg>
