<svg width="62" height="63" viewBox="0 0 62 63" fill="none" xmlns="http://www.w3.org/2000/svg">
<circle cx="28.7227" cy="28.2803" r="28.1543" fill="#FFC2C2"/>
<path d="M38.4954 48.2095C40.3909 46.2905 42.2996 44.3847 44.2076 42.4797C44.889 41.7993 45.5703 41.1191 46.2508 40.4384C46.8084 39.8807 47.3675 39.3248 47.9265 38.7691C49.2476 37.4557 50.568 36.143 51.866 34.8079C54.1038 32.5104 54.1665 28.9578 52.0124 26.5975M38.4954 48.2095L37.7843 47.5064C37.7842 47.5065 37.7841 47.5067 37.784 47.5068M38.4954 48.2095L37.784 47.5068M38.4954 48.2095C37.8715 48.8405 37.1396 49.1264 36.2786 49.1578C36.0648 49.1648 35.851 49.1624 35.6373 49.1601L36.244 48.1584M37.784 47.5068C39.6821 45.5851 41.5944 43.6757 43.5032 41.7698C44.1841 41.09 44.8645 40.4107 45.5436 39.7314C46.1059 39.1689 46.6677 38.6104 47.2281 38.0533C48.5465 36.7426 49.8572 35.4396 51.1491 34.1108L51.1497 34.1102C53.0198 32.1901 53.069 29.2393 51.2743 27.2722M37.784 47.5068C37.3567 47.9388 36.8749 48.1351 36.244 48.1584M51.2743 27.2722C51.2744 27.2723 51.2745 27.2724 51.2747 27.2726L52.0124 26.5975M51.2743 27.2722C51.2741 27.272 51.274 27.2718 51.2738 27.2716L52.0124 26.5975M51.2743 27.2722C50.0398 25.9232 48.534 25.4113 46.7043 25.696L46.7042 25.696C45.6409 25.8614 44.7344 26.36 43.9408 27.1568L43.9395 27.1581C43.4573 27.6404 42.9752 28.1225 42.4933 28.6044C40.5635 30.5341 38.6356 32.4619 36.712 34.3943L36.7061 34.4002L36.7001 34.406C36.6544 34.4504 36.5696 34.53 36.4577 34.6011C36.3388 34.6766 36.141 34.7737 35.8805 34.7812C35.3686 34.796 35.0521 34.4594 34.9786 34.3813C34.9767 34.3794 34.975 34.3775 34.9735 34.3759L34.968 34.3701L34.9681 34.3701C34.8857 34.2817 34.8003 34.194 34.7101 34.1033M52.0124 26.5975C50.545 24.9938 48.7012 24.3732 46.5506 24.7079M46.5506 24.7079C45.2505 24.9101 44.156 25.5237 43.2323 26.4511C42.7502 26.9333 42.2681 27.4154 41.7861 27.8974C39.8564 29.827 37.9276 31.7556 36.0033 33.6888L46.5506 24.7079ZM46.5506 24.7079L33.905 33.6798C34.0481 33.8163 34.1875 33.9571 34.3149 34.0859C34.3323 34.1035 34.3495 34.1209 34.3665 34.138C34.4195 34.1915 34.4707 34.243 34.5208 34.2927M34.7101 34.1033C34.909 33.9037 35.1068 33.7033 35.3033 33.5022L35.3034 33.5022L35.3068 33.4987C35.3059 33.4996 35.3047 33.5007 35.3033 33.5022C35.2888 33.5167 35.2455 33.5577 35.1772 33.6C35.0865 33.6562 34.9285 33.7288 34.7189 33.7313C34.5079 33.7338 34.3458 33.664 34.2495 33.6063C34.1632 33.5545 34.1147 33.5035 34.1087 33.4973L34.7076 32.92L34.7085 32.9191L34.8286 32.8033L34.7078 32.9185L34.7069 32.9193L34.1048 33.4932C34.2446 33.6399 34.3878 33.7822 34.5199 33.9134C34.5336 33.927 34.5471 33.9405 34.5606 33.9538C34.6119 34.0049 34.6617 34.0545 34.7101 34.1033ZM34.7101 34.1033C34.6471 34.1665 34.584 34.2297 34.5208 34.2927M34.5208 34.2927C34.6084 34.3797 34.6926 34.4613 34.7771 34.5391L34.78 34.5417C34.8758 34.6306 35.2419 34.9744 35.192 35.5291C35.1689 35.7854 35.0628 35.9736 34.9892 36.0804C34.9183 36.1832 34.841 36.2622 34.8004 36.3029L34.7977 36.3055C34.1516 36.947 33.496 37.6032 32.8384 38.2612C32.0843 39.016 31.3277 39.7733 30.58 40.5137M34.5208 34.2927L30.5793 40.5144C30.5796 40.5142 30.5798 40.5139 30.58 40.5137M30.58 40.5137C30.2499 40.842 30.0774 41.2416 30.0196 41.7852L30.0193 41.7884C29.9847 42.1043 29.9754 42.4314 29.9693 42.7978C29.9685 42.8432 29.9678 42.8894 29.9671 42.9363C29.9623 43.2545 29.957 43.6051 29.932 43.9542L29.9319 43.9558C29.8628 44.9014 29.5551 45.8107 28.7826 46.5788L30.58 40.5137ZM36.244 48.1584C36.0515 48.1646 35.8752 48.1626 35.677 48.1604C35.567 48.1591 35.4503 48.1578 35.3203 48.1578L35.2966 48.1578L35.2729 48.1589C35.1903 48.1628 35.1008 48.1659 35.0059 48.1693C34.5917 48.1838 34.0742 48.2019 33.5785 48.3037L36.244 48.1584ZM31.6812 49.3436L31.6816 49.3433C32.1988 48.8259 32.823 48.4588 33.5782 48.3038L31.6812 49.3436ZM31.6812 49.3436C29.8219 51.2051 27.9616 53.0658 26.1012 54.9267L26.095 54.9329C24.2368 56.7915 22.3784 58.6504 20.5208 60.5101C20.0609 60.9702 19.5524 61.1767 18.9155 61.1622C18.0459 61.1418 17.1963 60.3955 17.0647 59.5414C16.9504 58.7961 17.1435 58.2134 17.683 57.6706M31.6812 49.3436L17.683 57.6706M17.683 57.6706C18.9177 56.4368 20.1507 55.2031 21.3833 53.9698C23.8479 51.5039 26.3109 49.0395 28.7824 46.5791L17.683 57.6706Z" stroke="black" stroke-width="2"/>
<path d="M49.78 22.475L49.7801 22.4751C54.2275 23.5742 56.7682 28.0073 55.8915 32.3292C55.5419 34.0607 54.6974 35.52 53.4735 36.7366C51.9515 38.2528 50.4347 39.7711 48.917 41.2905C48.3036 41.9045 47.6901 42.5187 47.076 43.1329C48.2519 43.1887 49.4251 43.0687 50.5946 42.7767L50.5951 42.7766C57.4228 41.0757 61.5171 34.0302 59.6195 27.251C57.8401 20.9035 51.5061 17.0204 45.0298 18.3792L49.78 22.475ZM49.78 22.475C46.92 21.7686 44.228 22.3051 41.9276 24.2674C41.4784 24.6496 41.0468 25.0924 40.6564 25.4929C40.5077 25.6455 40.3649 25.792 40.2294 25.9266L40.2291 25.927M49.78 22.475L40.2291 25.927M40.2291 25.927L40.2274 25.9286C39.7713 26.3824 39.313 26.8383 38.8562 27.2976M40.2291 25.927L38.8562 27.2976M38.8562 27.2976C38.0651 26.5013 37.2708 25.707 36.4748 24.9146C38.3264 21.4288 41.1324 19.1978 45.0296 18.3792L38.8562 27.2976ZM38.2773 27.8829C38.2749 27.8853 38.2757 27.8843 38.2793 27.8808L38.2773 27.8829Z" stroke="black" stroke-width="2"/>
<path d="M35.1864 27.1469C35.0819 27.0388 35.0261 27.0493 34.9285 27.1504C34.7442 27.3394 34.5571 27.5257 34.37 27.712C34.1361 27.9449 33.9022 28.1777 33.6737 28.416M35.1864 27.1469L25.1827 20.5227L24.6348 21.1126C24.6738 21.1488 24.696 21.1688 24.7119 21.1831C24.7304 21.1997 24.7403 21.2086 24.758 21.2264C24.758 21.2264 24.758 21.2264 24.758 21.2264L25.3049 21.7733M35.1864 27.1469C35.6291 27.6001 36.0753 28.0499 36.5284 28.4892C36.6399 28.5972 36.6364 28.6565 36.5284 28.7646M35.1864 27.1469L36.5284 28.7646M33.6737 28.416C33.5552 28.5415 33.489 28.5519 33.3565 28.4194C32.7108 27.7631 32.0592 27.1127 31.4076 26.4622C31.1904 26.2454 30.9733 26.0286 30.7563 25.8116L26.1899 21.2442L25.7548 21.3233C25.6048 21.4733 25.4549 21.6233 25.3049 21.7733M33.6737 28.416L34.3954 29.1082C34.3965 29.107 34.3976 29.1058 34.3988 29.1047M33.6737 28.416L34.4008 29.1025C34.4002 29.1032 34.3995 29.1039 34.3988 29.1047M25.3049 21.7733C24.2711 22.8073 23.2366 23.8415 22.2003 24.8742M25.3049 21.7733L30.0491 26.5187C30.2677 26.7373 30.4858 26.955 30.7036 27.1724C31.3544 27.822 32.0014 28.4679 32.6437 29.1208L32.6437 29.1208L32.6493 29.1265C32.6506 29.1277 32.652 29.1291 32.6534 29.1305C32.7337 29.2111 33.0539 29.5321 33.5567 29.5138C34.034 29.4964 34.3287 29.1799 34.3943 29.1095C34.3959 29.1077 34.3974 29.1061 34.3988 29.1047M22.2003 24.8742C22.2872 24.9612 22.3734 25.0478 22.4589 25.1337C22.5485 25.2238 22.6373 25.3131 22.7252 25.401C23.1806 25.8565 23.636 26.3121 24.0913 26.7677C25.9107 28.588 27.7299 30.4082 29.5537 32.2241M22.2003 24.8742C22.0075 25.0663 21.8147 25.2584 21.6218 25.4504M22.2003 24.8742C22.0088 24.6826 21.814 24.4893 21.6166 24.2992C21.6156 24.2982 21.6146 24.2973 21.6137 24.2964L21.0501 24.8817L20.9131 24.7448L21.6218 25.4504M34.3988 29.1047C34.6311 28.8625 34.8396 28.6552 35.0563 28.4399M35.0563 28.4399C35.1196 28.5036 35.1831 28.5672 35.2467 28.6307M35.0563 28.4399C34.8598 28.2423 34.6647 28.0439 34.4711 27.8456M35.0563 28.4399C35.0568 28.4394 35.0573 28.4389 35.0578 28.4384C35.2411 28.2562 35.4302 28.0683 35.6445 27.8486L35.6479 27.8451C35.6474 27.8455 35.6463 27.8467 35.6444 27.8485C35.6406 27.8523 35.6338 27.8589 35.6243 27.8672C35.6098 27.8799 35.5827 27.9026 35.5439 27.9281C35.4658 27.9793 35.3124 28.0598 35.0993 28.0692C34.88 28.079 34.7095 28.0089 34.6083 27.9493C34.5306 27.9036 34.4836 27.8583 34.4711 27.8456M35.2467 28.6307C33.1813 30.6916 31.1184 32.755 29.058 34.8209M35.2467 28.6307C35.4385 28.4393 35.6303 28.2479 35.8222 28.0566L36.393 28.6288L36.393 28.6289L36.5284 28.7646M35.2467 28.6307C35.4404 28.824 35.6355 29.0164 35.8323 29.2072L35.8325 29.2073L36.5284 28.7646M29.058 34.8209C28.9952 34.7578 28.9323 34.6948 28.8692 34.632M29.058 34.8209C29.249 35.0128 29.4387 35.2061 29.6272 35.4006L29.0559 35.9541L28.909 36.0964L29.0534 35.952L28.4901 35.3904C28.6793 35.2005 28.8687 35.0107 29.058 34.8209ZM28.8692 34.632C28.8714 34.6297 28.8737 34.6274 28.8759 34.6252C29.0917 34.408 29.2993 34.199 29.5418 33.9662M28.8692 34.632C28.6913 34.8111 28.5075 34.9959 28.2939 35.2045M28.8692 34.632C28.6736 34.4372 28.4767 34.2437 28.2785 34.0515M29.5418 33.9662C29.5433 33.9648 29.545 33.9633 29.5469 33.9615C29.613 33.9005 29.9438 33.5949 29.9486 33.1017C29.9533 32.6067 29.6273 32.2945 29.5576 32.2278C29.5562 32.2265 29.5549 32.2253 29.5537 32.2241M29.5418 33.9662C29.5411 33.9669 29.5405 33.9675 29.5399 33.968L28.8532 33.2411L29.5456 33.9626C29.5443 33.9638 29.5431 33.965 29.5418 33.9662ZM29.5537 32.2241C29.5554 32.2258 29.5571 32.2275 29.5588 32.2291L28.8532 32.9378L29.5506 32.2211C29.5516 32.222 29.5526 32.223 29.5537 32.2241ZM21.6218 25.4504C21.621 25.4511 21.6206 25.4516 21.6204 25.4517L21.6203 25.4518L21.0503 24.882L21.6218 25.4504ZM28.2939 35.2045C28.2913 35.207 28.2888 35.2095 28.2863 35.2119L27.7168 34.6282M28.2939 35.2045C28.2902 35.2084 28.2901 35.2082 28.2951 35.2032M28.2939 35.2045C28.2942 35.2041 28.2947 35.2037 28.2951 35.2032M28.2785 34.0515C28.2782 34.0513 28.278 34.0511 28.2778 34.0509L28.2775 34.0506L27.7184 34.6266M28.2785 34.0515C28.278 34.051 28.2775 34.0505 28.2769 34.05L27.7183 34.6265M28.2785 34.0515C28.2868 34.0596 28.3399 34.1121 28.3916 34.2049C28.4552 34.3191 28.5188 34.4998 28.4976 34.7222C28.4777 34.9298 28.3928 35.0719 28.3508 35.1328C28.326 35.1688 28.3038 35.1939 28.2951 35.2032M27.7184 34.6266L27.7183 34.6265M27.7184 34.6266L28.2951 35.2032M27.7184 34.6266L27.7168 34.6282M27.7183 34.6265L27.7167 34.6281M27.7183 34.6265L27.5879 34.4962L27.7167 34.6281M27.7168 34.6282L27.7167 34.6281M27.7168 34.6282L27.581 34.7681L27.7167 34.6281M34.4711 27.8456L34.468 27.8425M34.4711 27.8456L34.468 27.8425M34.468 27.8425L34.4678 27.8423L34.4678 27.8423L34.468 27.8425Z" stroke="black" stroke-width="2"/>
</svg>
