<svg width="69" height="62" viewBox="0 0 69 62" fill="none" xmlns="http://www.w3.org/2000/svg">
<circle cx="28.9258" cy="28.499" r="28.1543" fill="#AAF0FF"/>
<path d="M27.7542 56.636H26.7542V57.636V59.7903C26.7542 60.4261 26.2401 60.9445 25.6 60.9445H23.4458C22.8132 60.9445 22.2915 60.4228 22.2915 59.7903V42.725L26.7169 29.9806C26.717 29.9805 26.717 29.9804 26.717 29.9804C27.0229 29.1003 27.858 28.4766 28.8314 28.4766H52.5281C53.5015 28.4766 54.3367 29.1004 54.6425 29.9806L59.068 42.725V59.7903C59.068 60.4261 58.5538 60.9445 57.9137 60.9445H55.7595C55.1269 60.9445 54.6052 60.4228 54.6052 59.7903V57.636V56.636H53.6052H27.7542ZM24.6513 40.0858L24.2126 41.4021H25.6H55.7595H57.1469L56.7082 40.0858L53.4768 30.3917L53.2489 29.7079H52.5281H28.8314H28.1106L27.8827 30.3917L24.6513 40.0858ZM24.6 47.9419C24.6 50.2822 26.4911 52.1733 28.8314 52.1733C31.1717 52.1733 33.0627 50.2822 33.0627 47.9419C33.0627 45.6016 31.1717 43.7105 28.8314 43.7105C26.4911 43.7105 24.6 45.6016 24.6 47.9419ZM48.2967 47.9419C48.2967 50.2822 50.1878 52.1733 52.5281 52.1733C54.8684 52.1733 56.7595 50.2822 56.7595 47.9419C56.7595 45.6016 54.8684 43.7105 52.5281 43.7105C50.1878 43.7105 48.2967 45.6016 48.2967 47.9419Z" stroke="black" stroke-width="2"/>
<path d="M17.2116 26.4246C17.4039 26.338 17.6432 26.22 17.8782 26.0446C17.9479 26.0074 18.0068 25.9674 18.0553 25.9301C18.0806 25.9107 18.1043 25.8908 18.1258 25.872L19.6108 25.4759L18.9976 24.8627C19.0932 24.7025 19.1772 24.538 19.249 24.3693C19.6377 25.3075 20.3926 26.056 21.3313 26.4446C21.0518 26.5556 20.7099 26.7225 20.4044 27.01C19.8479 27.4266 19.4715 27.947 19.2302 28.5217C18.8381 27.5811 18.0772 26.8424 17.1295 26.46C17.1559 26.4491 17.1822 26.4377 17.2086 26.426L17.2086 26.426L17.2116 26.4246Z" stroke="black" stroke-width="2"/>
<path d="M62.4504 35.0413C62.6427 34.9547 62.882 34.8367 63.117 34.6613C63.1867 34.6241 63.2456 34.5841 63.2941 34.5468C63.3193 34.5274 63.3431 34.5075 63.3645 34.4887L64.8496 34.0926L64.2363 33.4794C64.3319 33.3192 64.4159 33.1547 64.4878 32.986C64.8764 33.9242 65.6314 34.6727 66.5701 35.0613C66.2905 35.1723 65.9487 35.3392 65.6432 35.6267C65.0867 36.0433 64.7103 36.5637 64.4689 37.1384C64.0769 36.1978 63.316 35.4591 62.3683 35.0767C62.3946 35.0658 62.421 35.0544 62.4474 35.0427L62.4474 35.0427L62.4504 35.0413Z" stroke="black" stroke-width="2"/>
</svg>
