<svg width="48" height="63" viewBox="0 0 48 63" fill="none" xmlns="http://www.w3.org/2000/svg">
<circle cx="28.2734" cy="28.6567" r="28.1543" fill="#D8C6FF"/>
<path d="M26.3826 57.8371H25.3826V58.8371V60.8401C25.3826 61.3927 24.9357 61.8431 24.3796 61.8431H22.3765C21.8272 61.8431 21.3735 61.3894 21.3735 60.8401V44.9847L25.4844 33.1462C25.4844 33.1461 25.4844 33.1461 25.4845 33.146C25.7593 32.3552 26.5098 31.7949 27.3841 31.7949H49.4172C50.2915 31.7949 51.042 32.3553 51.3168 33.1462L55.4277 44.9847V60.8401C55.4277 61.3927 54.9808 61.8431 54.4247 61.8431H52.4217C51.8723 61.8431 51.4187 61.3894 51.4187 60.8401V58.8371V57.8371H50.4187H26.3826ZM23.4309 42.4968L22.9921 43.813H24.3796H52.4217H53.8091L53.3704 42.4968L50.3659 33.4832L50.1379 32.7994H49.4172H27.3841H26.6633L26.4354 33.4832L23.4309 42.4968ZM23.3796 49.8235C23.3796 52.0383 25.1693 53.828 27.3841 53.828C29.5989 53.828 31.3886 52.0383 31.3886 49.8235C31.3886 47.6087 29.5989 45.819 27.3841 45.819C25.1693 45.819 23.3796 47.6087 23.3796 49.8235ZM45.4127 49.8235C45.4127 52.0383 47.2024 53.828 49.4172 53.828C51.632 53.828 53.4217 52.0383 53.4217 49.8235C53.4217 47.6087 51.632 45.819 49.4172 45.819C47.2024 45.819 45.4127 47.6087 45.4127 49.8235Z" stroke="black" stroke-width="2"/>
<path d="M47.5234 25.5582C47.5234 26.0233 47.1327 26.4538 46.5725 26.4538C46.0123 26.4538 45.6216 26.0233 45.6216 25.5582C45.6216 25.4953 45.6604 25.2695 45.8571 24.8593C46.0379 24.4822 46.2935 24.0689 46.5725 23.6683C46.8516 24.0689 47.1071 24.4822 47.288 24.8593C47.4847 25.2695 47.5234 25.4953 47.5234 25.5582ZM39.3537 25.5582C39.3537 26.0233 38.963 26.4538 38.4028 26.4538C37.8426 26.4538 37.4519 26.0233 37.4519 25.5582C37.4519 25.4953 37.4907 25.2695 37.6874 24.8593C37.8682 24.4822 38.1238 24.0689 38.4028 23.6683C38.6819 24.0689 38.9374 24.4822 39.1183 24.8593C39.315 25.2695 39.3537 25.4953 39.3537 25.5582ZM31.184 25.5582C31.184 26.0233 30.7933 26.4538 30.2331 26.4538C29.6729 26.4538 29.2822 26.0233 29.2822 25.5582C29.2822 25.4953 29.321 25.2695 29.5177 24.8593C29.6985 24.4822 29.9541 24.0689 30.2331 23.6683C30.5122 24.0689 30.7677 24.4822 30.9486 24.8593C31.1453 25.2695 31.184 25.4953 31.184 25.5582Z" stroke="black" stroke-width="3"/>
</svg>
