<svg width="67" height="70" viewBox="0 0 67 70" fill="none" xmlns="http://www.w3.org/2000/svg">
<circle cx="28.2734" cy="28.1934" r="28.1543" fill="#FFD166"/>
<path d="M59.7412 45.6488C59.8537 44.8431 59.9126 44.0306 59.9173 43.2168C59.9173 42.729 59.892 42.2424 59.854 41.7581C59.8257 41.4463 59.8746 41.1323 59.9963 40.8446C60.1179 40.557 60.3084 40.3048 60.5504 40.111L64.9488 36.6017C65.1756 36.411 65.3284 36.1446 65.3801 35.8501C65.4317 35.5555 65.3788 35.2519 65.2308 34.9933L60.3075 26.3369C60.1578 26.0809 59.924 25.8869 59.6473 25.7888C59.3706 25.6908 59.0688 25.6952 58.7949 25.8012L53.6276 27.915C53.3441 28.0309 53.0367 28.0733 52.7331 28.0383C52.4294 28.0034 52.1391 27.8923 51.8883 27.7149C51.1048 27.1585 50.2788 26.6668 49.418 26.2445C49.1428 26.1114 48.9042 25.9113 48.7235 25.6619C48.5427 25.4125 48.4254 25.1216 48.382 24.8151L47.6084 19.2212C47.5499 18.9319 47.3961 18.6715 47.1724 18.4829C46.9487 18.2943 46.6685 18.1887 46.3779 18.1836H36.5313C36.2358 18.19 35.9516 18.3004 35.7274 18.496C35.5032 18.6917 35.3527 18.9604 35.3019 19.2563L34.5272 24.8583C34.4857 25.1616 34.3713 25.4497 34.1943 25.6974C34.0172 25.9451 33.7828 26.1446 33.5119 26.2784C32.6501 26.703 31.8212 27.1934 31.0324 27.7453C30.7807 27.9236 30.4894 28.0356 30.1846 28.0713C29.8799 28.107 29.5712 28.0654 29.2861 27.9501L24.1176 25.8351C23.8437 25.7292 23.5417 25.725 23.265 25.8233C22.9883 25.9215 22.7546 26.1158 22.6051 26.372L17.6818 35.0284C17.5351 35.2852 17.4821 35.5863 17.532 35.8789C17.5818 36.1715 17.7315 36.4369 17.9546 36.6286L22.3507 40.1379C22.5911 40.3295 22.7809 40.5789 22.9028 40.8636C23.0248 41.1482 23.0752 41.4592 23.0494 41.7686C23.0068 42.2459 22.9826 42.7255 22.9826 43.2133C22.9826 43.7011 23.008 44.1877 23.0494 44.6755C23.0783 44.9868 23.0303 45.3005 22.9097 45.5881C22.7891 45.8757 22.5997 46.1282 22.3587 46.3226L17.9603 49.8319C17.7335 50.0226 17.5807 50.289 17.529 50.5835C17.4774 50.8781 17.5303 51.1817 17.6783 51.4403L22.6016 60.0967C22.7513 60.3526 22.9851 60.5467 23.2618 60.6447C23.5385 60.7428 23.8404 60.7384 24.1142 60.6324L29.2815 58.5186C29.565 58.4027 29.8724 58.3603 30.1761 58.3952C30.4797 58.4302 30.77 58.5413 31.0209 58.7187C31.8043 59.2751 32.6304 59.7668 33.4912 60.1891C33.7664 60.3222 34.0049 60.5223 34.1857 60.7717C34.3664 61.0211 34.4837 61.312 34.5272 61.6185L35.3007 67.2124C35.3593 67.5017 35.5131 67.7621 35.7367 67.9507C35.9604 68.1393 36.2406 68.2449 36.5313 68.25H46.3779C46.6734 68.2436 46.9575 68.1332 47.1817 67.9375C47.406 67.7419 47.5564 67.4732 47.6073 67.1773L48.382 61.5753C48.4235 61.272 48.5378 60.9839 48.7149 60.7362C48.892 60.4885 49.1263 60.289 49.3973 60.1551C50.2591 59.7306 51.088 59.2402 51.8768 58.6883C52.1284 58.51 52.4197 58.398 52.7245 58.3623C53.0292 58.3266 53.338 58.3682 53.623 58.4835L58.7915 60.5985C59.0655 60.7044 59.3674 60.7086 59.6441 60.6103C59.9208 60.5121 60.1545 60.3178 60.3041 60.0616L65.2274 51.4052C65.3752 51.1465 65.4279 50.843 65.3763 50.5485C65.3246 50.254 65.172 49.9877 64.9453 49.7968L59.7412 45.6488Z" stroke="black" stroke-width="2" stroke-linecap="round" stroke-linejoin="round"/>
<path d="M42.6975 35.5986C44.324 35.7764 45.844 36.5605 46.9998 37.8181C48.1557 39.0758 48.8764 40.7296 49.0398 42.4992C49.1831 44.0778 48.8744 45.6661 48.156 47.0464M34.5158 39.9649C33.8922 41.3988 33.6913 43.0073 33.9405 44.5703C34.1896 46.1332 34.8767 47.5742 35.9076 48.6959C36.9386 49.8176 38.263 50.5651 39.6995 50.8362" stroke="black" stroke-width="2" stroke-linecap="round" stroke-linejoin="round"/>
</svg>
