<svg width="61" height="61" viewBox="0 0 61 61" fill="none" xmlns="http://www.w3.org/2000/svg">
<circle cx="28.6211" cy="28.6567" r="28.1543" fill="#71F887"/>
<path d="M16.088 36.0892L16.088 36.089C16.1119 25.622 24.6089 17.1504 35.0614 17.1654C45.564 17.1803 54.0304 25.6784 54.0156 36.1889C53.9977 46.614 45.4857 55.102 35.0637 55.093C24.556 55.0841 16.061 46.5715 16.088 36.0892Z" stroke="black" stroke-width="2"/>
<path d="M35.0331 47.8031H35.0332C41.4707 47.8408 46.7011 42.6395 46.7252 36.1506L35.0331 47.8031ZM35.0331 47.8031C28.5111 47.7653 23.3304 42.541 23.3768 36.0715M35.0331 47.8031L23.3768 36.0715M23.3768 36.0715C23.4233 29.5956 28.6455 24.4173 35.0652 24.4547L23.3768 36.0715ZM46.7252 36.1458V36.1494L35.0656 24.4547C41.58 24.4957 46.7484 29.6911 46.7252 36.1458Z" stroke="black" stroke-width="2"/>
<path d="M38.1544 44.6357C37.6533 44.8238 37.1404 44.9591 36.6125 45.0466L36.6118 45.0467C34.9965 45.3155 33.4441 45.1826 31.9479 44.6288C32.735 43.5524 33.5134 42.4711 34.2898 41.3926C34.3259 41.3425 34.362 41.2923 34.3981 41.2422C34.8355 41.294 35.272 41.2912 35.7011 41.2413C36.5149 42.3712 37.332 43.5002 38.1544 44.6357ZM34.6168 40.9383C34.6222 40.9307 34.6216 40.9326 34.6149 40.941L34.6168 40.9383ZM31.3998 45.3757C31.3978 45.3788 31.3967 45.3805 31.3966 45.3805C31.3965 45.3806 31.3975 45.379 31.3998 45.3757Z" stroke="black" stroke-width="2"/>
<path d="M30.3989 38.33C29.5857 39.4451 28.7749 40.5641 27.9565 41.6957C26.9239 40.383 26.3156 38.9081 26.108 37.2247L26.1079 37.2235C26.05 36.7587 26.0328 36.2893 26.0473 35.8125C27.0599 36.1427 28.0733 36.4679 29.0843 36.7924C29.3861 36.8893 29.6877 36.9861 29.9891 37.0829C30.0665 37.5374 30.2175 37.953 30.3989 38.33ZM26.1158 34.8556C26.1161 34.8536 26.1162 34.8527 26.1162 34.8528L26.1158 34.8556ZM25.1165 35.5074C25.1125 35.5063 25.1103 35.5056 25.1103 35.5056C25.1102 35.5055 25.1122 35.506 25.1165 35.5074ZM30.5797 38.6775C30.5875 38.6913 30.5857 38.6902 30.5793 38.6768L30.5797 38.6775Z" stroke="black" stroke-width="2"/>
<mask id="path-6-inside-1_2_22" fill="white">
<path d="M36.5167 29.2251C36.5167 28.308 36.5199 27.3908 36.5167 26.4769C36.5167 26.2846 36.5167 26.1932 36.7783 26.2437C39.9173 26.8519 42.2652 28.5443 43.8473 31.3177C43.9986 31.5793 43.964 31.6644 43.6835 31.7558C41.9721 32.2979 40.2671 32.8526 38.5621 33.4104C38.351 33.4797 38.2217 33.4388 38.0736 33.278C37.7017 32.8683 37.2605 32.5469 36.7499 32.3389C36.5482 32.2569 36.5104 32.134 36.5136 31.9354C36.523 31.0341 36.5167 30.1296 36.5199 29.2282L36.5167 29.2251Z"/>
</mask>
<path d="M36.5167 29.2251H34.5167V30.053L35.102 30.6387L36.5167 29.2251ZM36.5167 26.4769H34.5167L34.5167 26.4838L36.5167 26.4769ZM36.7783 26.2437L37.1588 24.2802L37.1569 24.2798L36.7783 26.2437ZM43.8473 31.3177L42.1101 32.3088L42.116 32.319L43.8473 31.3177ZM43.6835 31.7558L44.2874 33.6624L44.2953 33.66L44.3031 33.6574L43.6835 31.7558ZM38.5621 33.4104L37.9402 31.5095L37.9382 31.5102L38.5621 33.4104ZM38.0736 33.278L36.5927 34.6222L36.5978 34.6278L36.6029 34.6334L38.0736 33.278ZM36.7499 32.3389L37.5045 30.4867L37.5027 30.4859L36.7499 32.3389ZM36.5136 31.9354L38.5133 31.9672L38.5135 31.9564L36.5136 31.9354ZM36.5199 29.2282L38.5199 29.2352L38.5228 28.4031L37.9346 27.8145L36.5199 29.2282ZM38.5167 29.2251C38.5167 28.3177 38.5199 27.388 38.5167 26.47L34.5167 26.4838C34.5199 27.3937 34.5167 28.2982 34.5167 29.2251H38.5167ZM38.5167 26.4769C38.5167 26.3901 38.5197 26.479 38.5072 26.5854C38.4956 26.6839 38.443 27.1068 38.1067 27.5242C37.7111 28.0151 37.1962 28.1772 36.8689 28.2171C36.5993 28.25 36.4086 28.2092 36.3997 28.2075L37.1569 24.2798C37.0172 24.2529 36.7284 24.2046 36.3852 24.2465C35.9844 24.2953 35.4204 24.4828 34.9921 25.0144C34.6231 25.4723 34.5542 25.951 34.5344 26.1191C34.5138 26.2951 34.5167 26.4675 34.5167 26.4769H38.5167ZM36.3978 28.2071C38.9611 28.7038 40.8152 30.0388 42.1101 32.3087L45.5846 30.3267C43.7153 27.0499 40.8735 25 37.1588 24.2802L36.3978 28.2071ZM42.116 32.319C42.1156 32.3183 42.1126 32.3131 42.1078 32.3041C42.1031 32.2951 42.0955 32.2804 42.0862 32.2607C42.0692 32.2247 42.0369 32.1517 42.0069 32.0501C41.9485 31.8525 41.8605 31.41 42.0575 30.891C42.2553 30.3696 42.6175 30.0953 42.7975 29.9841C42.8891 29.9275 42.9632 29.8942 43.0007 29.8784C43.0213 29.8697 43.0371 29.8637 43.047 29.8601C43.0569 29.8565 43.0628 29.8545 43.0638 29.8542L44.3031 33.6574C44.4206 33.6191 44.6551 33.5383 44.8999 33.387C45.1606 33.226 45.5745 32.897 45.7972 32.3102C46.019 31.7258 45.9288 31.2073 45.8431 30.9172C45.7621 30.6428 45.6422 30.4263 45.5787 30.3165L42.116 32.319ZM43.0795 29.8492C41.359 30.3942 39.6467 30.9512 37.9402 31.5095L39.184 35.3112C40.8875 34.7539 42.5853 34.2016 44.2874 33.6624L43.0795 29.8492ZM37.9382 31.5102C38.0508 31.4732 38.3955 31.3817 38.8346 31.5049C39.2588 31.6239 39.4932 31.8672 39.5443 31.9227L36.6029 34.6334C36.8022 34.8496 37.1752 35.1937 37.7539 35.3561C38.3473 35.5226 38.8623 35.4169 39.1861 35.3106L37.9382 31.5102ZM39.5545 31.9338C39.0002 31.3232 38.3168 30.8176 37.5045 30.4867L35.9953 34.191C36.2042 34.2761 36.4032 34.4135 36.5927 34.6222L39.5545 31.9338ZM37.5027 30.4859C37.6982 30.5654 38.0814 30.7822 38.3287 31.2568C38.4357 31.4623 38.4791 31.6466 38.4976 31.7671C38.515 31.8805 38.5134 31.9588 38.5133 31.9672L34.5138 31.9037C34.511 32.0815 34.5079 32.5804 34.7812 33.1049C35.097 33.7111 35.5999 34.0304 35.9972 34.1918L37.5027 30.4859ZM38.5135 31.9564C38.523 31.0504 38.5168 30.1039 38.5199 29.2352L34.5199 29.2212C34.5166 30.1552 34.5231 31.0178 34.5137 31.9145L38.5135 31.9564ZM37.9346 27.8145L37.9315 27.8114L35.102 30.6387L35.1051 30.6419L37.9346 27.8145Z" fill="black" mask="url(#path-6-inside-1_2_22)"/>
<path d="M26.6802 30.784C26.6817 30.7846 26.6834 30.7853 26.6853 30.7861M26.6802 30.784C26.6819 30.7846 26.684 30.7853 26.6863 30.786L26.6862 30.7865M26.6802 30.784C26.6757 30.7823 26.6733 30.7815 26.6732 30.7815C26.6731 30.7815 26.6753 30.7824 26.6802 30.784ZM26.6853 30.7861C26.6856 30.7863 26.6859 30.7864 26.6862 30.7865M26.6853 30.7861L26.474 31.4631L26.4735 31.4649L26.3875 31.7403M26.6853 30.7861L26.3875 31.7403M26.6862 30.7865L26.4743 31.4633L26.4737 31.4651L26.3875 31.7403M26.6862 30.7865C26.706 30.7949 26.7465 30.8145 26.7955 30.8492L26.3875 31.7403M32.5812 31.5987C32.1981 31.7974 31.8426 32.0488 31.5269 32.3506C31.482 32.3358 31.4371 32.3211 31.3922 32.3063C30.1292 31.8913 28.8603 31.4743 27.5859 31.0694C28.8167 29.2596 30.4705 28.0641 32.5761 27.4593C32.5761 27.5211 32.5761 27.5828 32.5761 27.6446C32.5756 28.961 32.5751 30.2791 32.5812 31.5987ZM31.8639 32.4613C31.87 32.463 31.8709 32.4636 31.8661 32.462L31.8639 32.4613ZM32.5815 31.9109C32.5814 31.9108 32.5815 31.9071 32.5823 31.9004C32.582 31.9078 32.5816 31.9111 32.5815 31.9109Z" stroke="black" stroke-width="2"/>
<path d="M32.8251 36.1338C32.8251 34.8826 33.7958 33.9056 35.047 33.9056C36.3013 33.9056 37.2751 34.8763 37.2783 36.1275C37.2783 37.3755 36.3044 38.3557 35.0564 38.3588C33.8052 38.3588 32.8282 37.385 32.8282 36.1369L32.8251 36.1338Z" fill="black"/>
<path d="M59.4521 42.5012C59.5248 47.8344 55.2901 50.6638 53.1636 51.4119L53.2733 59.4509L43.4598 59.5848C43.3716 58.0171 43.2268 54.2538 43.3528 51.7418C40.9227 49.8139 37.2803 47.1181 37.403 41.4292C37.5012 36.8781 41.6398 33.8539 43.6969 32.9107L43.8119 41.3418L48.6827 45.982L53.8256 41.2052L53.7106 32.7741C55.5941 33.7943 59.3793 37.168 59.4521 42.5012Z" fill="#71F887" stroke="black" stroke-width="2" stroke-linejoin="round"/>
</svg>
